<mxfile host="app.diagrams.net" agent="Mozilla/5.0 (Windows NT 10.0; Win64; x64) AppleWebKit/537.36 (KHTML, like Gecko) Chrome/128.0.0.0 Safari/537.36" version="24.7.16">
  <diagram name="Page-1" id="YRZ2x6Pq58HrXql84zc6">
    <mxGraphModel dx="880" dy="434" grid="0" gridSize="10" guides="1" tooltips="1" connect="1" arrows="1" fold="1" page="1" pageScale="1" pageWidth="827" pageHeight="1169" math="0" shadow="0">
      <root>
        <mxCell id="0" />
        <mxCell id="1" parent="0" />
        <mxCell id="uIejyUl_H4MkBe-0IJj--5" value="AWS Cloud" style="points=[[0,0],[0.25,0],[0.5,0],[0.75,0],[1,0],[1,0.25],[1,0.5],[1,0.75],[1,1],[0.75,1],[0.5,1],[0.25,1],[0,1],[0,0.75],[0,0.5],[0,0.25]];outlineConnect=0;gradientColor=none;html=1;whiteSpace=wrap;fontSize=12;fontStyle=0;container=1;pointerEvents=0;collapsible=0;recursiveResize=0;shape=mxgraph.aws4.group;grIcon=mxgraph.aws4.group_aws_cloud_alt;strokeColor=#232F3E;fillColor=none;verticalAlign=top;align=left;spacingLeft=30;fontColor=#232F3E;dashed=0;" vertex="1" parent="1">
          <mxGeometry x="71" y="61" width="717" height="361" as="geometry" />
        </mxCell>
        <mxCell id="uIejyUl_H4MkBe-0IJj--26" style="edgeStyle=orthogonalEdgeStyle;rounded=0;orthogonalLoop=1;jettySize=auto;html=1;exitX=0.5;exitY=1;exitDx=0;exitDy=0;exitPerimeter=0;flowAnimation=1;" edge="1" parent="uIejyUl_H4MkBe-0IJj--5" source="uIejyUl_H4MkBe-0IJj--6">
          <mxGeometry relative="1" as="geometry">
            <mxPoint x="293" y="274" as="targetPoint" />
            <Array as="points">
              <mxPoint x="95" y="274" />
            </Array>
          </mxGeometry>
        </mxCell>
        <mxCell id="uIejyUl_H4MkBe-0IJj--6" value="" style="outlineConnect=0;dashed=0;verticalLabelPosition=bottom;verticalAlign=top;align=center;html=1;shape=mxgraph.aws3.ec2;fillColor=#F58534;gradientColor=none;" vertex="1" parent="uIejyUl_H4MkBe-0IJj--5">
          <mxGeometry x="72" y="127.5" width="46" height="62" as="geometry" />
        </mxCell>
        <mxCell id="uIejyUl_H4MkBe-0IJj--8" value="EC2" style="text;html=1;align=center;verticalAlign=middle;resizable=0;points=[];autosize=1;strokeColor=none;fillColor=none;" vertex="1" parent="uIejyUl_H4MkBe-0IJj--5">
          <mxGeometry x="75" y="184" width="41" height="26" as="geometry" />
        </mxCell>
        <mxCell id="uIejyUl_H4MkBe-0IJj--32" style="edgeStyle=orthogonalEdgeStyle;rounded=0;orthogonalLoop=1;jettySize=auto;html=1;exitX=1;exitY=0.5;exitDx=0;exitDy=0;exitPerimeter=0;startArrow=classic;startFill=1;endArrow=none;endFill=0;flowAnimation=1;" edge="1" parent="uIejyUl_H4MkBe-0IJj--5" source="uIejyUl_H4MkBe-0IJj--9" target="uIejyUl_H4MkBe-0IJj--11">
          <mxGeometry relative="1" as="geometry" />
        </mxCell>
        <mxCell id="uIejyUl_H4MkBe-0IJj--9" value="" style="outlineConnect=0;dashed=0;verticalLabelPosition=bottom;verticalAlign=top;align=center;html=1;shape=mxgraph.aws3.s3;fillColor=#E05243;gradientColor=none;" vertex="1" parent="uIejyUl_H4MkBe-0IJj--5">
          <mxGeometry x="202" y="17" width="54" height="56" as="geometry" />
        </mxCell>
        <mxCell id="uIejyUl_H4MkBe-0IJj--10" value="S3" style="text;html=1;align=center;verticalAlign=middle;resizable=0;points=[];autosize=1;strokeColor=none;fillColor=none;" vertex="1" parent="uIejyUl_H4MkBe-0IJj--5">
          <mxGeometry x="296.5" y="70" width="33" height="26" as="geometry" />
        </mxCell>
        <mxCell id="uIejyUl_H4MkBe-0IJj--37" style="edgeStyle=orthogonalEdgeStyle;rounded=0;orthogonalLoop=1;jettySize=auto;html=1;entryX=0.5;entryY=1;entryDx=0;entryDy=0;entryPerimeter=0;flowAnimation=1;startArrow=classic;startFill=1;endArrow=none;endFill=0;" edge="1" parent="uIejyUl_H4MkBe-0IJj--5" source="uIejyUl_H4MkBe-0IJj--36" target="uIejyUl_H4MkBe-0IJj--11">
          <mxGeometry relative="1" as="geometry">
            <Array as="points">
              <mxPoint x="395" y="275" />
              <mxPoint x="395" y="189" />
              <mxPoint x="398" y="189" />
            </Array>
          </mxGeometry>
        </mxCell>
        <mxCell id="uIejyUl_H4MkBe-0IJj--11" value="" style="outlineConnect=0;dashed=0;verticalLabelPosition=bottom;verticalAlign=top;align=center;html=1;shape=mxgraph.aws3.ec2;fillColor=#F58534;gradientColor=none;" vertex="1" parent="uIejyUl_H4MkBe-0IJj--5">
          <mxGeometry x="375" y="117" width="46" height="62" as="geometry" />
        </mxCell>
        <mxCell id="uIejyUl_H4MkBe-0IJj--14" value="EC2" style="text;html=1;align=center;verticalAlign=middle;resizable=0;points=[];autosize=1;strokeColor=none;fillColor=none;" vertex="1" parent="uIejyUl_H4MkBe-0IJj--5">
          <mxGeometry x="336" y="214" width="41" height="26" as="geometry" />
        </mxCell>
        <mxCell id="uIejyUl_H4MkBe-0IJj--16" value="MSK" style="text;html=1;align=center;verticalAlign=middle;resizable=0;points=[];autosize=1;strokeColor=none;fillColor=none;" vertex="1" parent="uIejyUl_H4MkBe-0IJj--5">
          <mxGeometry x="297" y="182" width="44" height="26" as="geometry" />
        </mxCell>
        <mxCell id="uIejyUl_H4MkBe-0IJj--25" style="edgeStyle=orthogonalEdgeStyle;rounded=0;orthogonalLoop=1;jettySize=auto;html=1;exitX=0.5;exitY=0;exitDx=0;exitDy=0;exitPerimeter=0;entryX=0;entryY=0.5;entryDx=0;entryDy=0;entryPerimeter=0;flowAnimation=1;" edge="1" parent="uIejyUl_H4MkBe-0IJj--5" source="uIejyUl_H4MkBe-0IJj--6" target="uIejyUl_H4MkBe-0IJj--9">
          <mxGeometry relative="1" as="geometry" />
        </mxCell>
        <mxCell id="uIejyUl_H4MkBe-0IJj--34" value="" style="endArrow=none;html=1;rounded=0;exitX=1;exitY=0.5;exitDx=0;exitDy=0;exitPerimeter=0;startArrow=classic;startFill=1;endFill=0;flowAnimation=1;" edge="1" parent="uIejyUl_H4MkBe-0IJj--5">
          <mxGeometry width="50" height="50" relative="1" as="geometry">
            <mxPoint x="283" y="164" as="sourcePoint" />
            <mxPoint x="391" y="162" as="targetPoint" />
          </mxGeometry>
        </mxCell>
        <mxCell id="uIejyUl_H4MkBe-0IJj--39" style="edgeStyle=orthogonalEdgeStyle;rounded=0;orthogonalLoop=1;jettySize=auto;html=1;" edge="1" parent="uIejyUl_H4MkBe-0IJj--5" source="uIejyUl_H4MkBe-0IJj--36">
          <mxGeometry relative="1" as="geometry">
            <mxPoint x="187" y="269.5" as="targetPoint" />
          </mxGeometry>
        </mxCell>
        <mxCell id="uIejyUl_H4MkBe-0IJj--36" value="" style="sketch=0;outlineConnect=0;fontColor=#232F3E;gradientColor=none;fillColor=#C925D1;strokeColor=none;dashed=0;verticalLabelPosition=bottom;verticalAlign=top;align=center;html=1;fontSize=12;fontStyle=0;aspect=fixed;pointerEvents=1;shape=mxgraph.aws4.aurora_instance;" vertex="1" parent="uIejyUl_H4MkBe-0IJj--5">
          <mxGeometry x="218" y="240" width="59" height="59" as="geometry" />
        </mxCell>
        <mxCell id="uIejyUl_H4MkBe-0IJj--15" value="" style="sketch=0;points=[[0,0,0],[0.25,0,0],[0.5,0,0],[0.75,0,0],[1,0,0],[0,1,0],[0.25,1,0],[0.5,1,0],[0.75,1,0],[1,1,0],[0,0.25,0],[0,0.5,0],[0,0.75,0],[1,0.25,0],[1,0.5,0],[1,0.75,0]];outlineConnect=0;fontColor=#232F3E;fillColor=#8C4FFF;strokeColor=#ffffff;dashed=0;verticalLabelPosition=bottom;verticalAlign=top;align=center;html=1;fontSize=12;fontStyle=0;aspect=fixed;shape=mxgraph.aws4.resourceIcon;resIcon=mxgraph.aws4.managed_streaming_for_kafka;" vertex="1" parent="uIejyUl_H4MkBe-0IJj--5">
          <mxGeometry x="216" y="130.5" width="56" height="56" as="geometry" />
        </mxCell>
        <mxCell id="uIejyUl_H4MkBe-0IJj--42" value="" style="whiteSpace=wrap;html=1;aspect=fixed;fillColor=none;dashed=1;" vertex="1" parent="uIejyUl_H4MkBe-0IJj--5">
          <mxGeometry x="504" y="73" width="149.75" height="149.75" as="geometry" />
        </mxCell>
        <mxCell id="uIejyUl_H4MkBe-0IJj--41" value="" style="sketch=0;pointerEvents=1;shadow=0;dashed=0;html=1;strokeColor=none;fillColor=#505050;labelPosition=center;verticalLabelPosition=bottom;verticalAlign=top;outlineConnect=0;align=center;shape=mxgraph.office.servers.server_farm;fillColor=#7FBA42;" vertex="1" parent="uIejyUl_H4MkBe-0IJj--5">
          <mxGeometry x="548" y="121" width="56" height="49" as="geometry" />
        </mxCell>
        <mxCell id="uIejyUl_H4MkBe-0IJj--21" value="" style="endArrow=classic;html=1;rounded=0;flowAnimation=1;" edge="1" parent="1">
          <mxGeometry width="50" height="50" relative="1" as="geometry">
            <mxPoint x="20" y="230" as="sourcePoint" />
            <mxPoint x="138" y="228" as="targetPoint" />
          </mxGeometry>
        </mxCell>
      </root>
    </mxGraphModel>
  </diagram>
</mxfile>
